<svg width="70" height="72" viewBox="0 0 70 72" fill="none" xmlns="http://www.w3.org/2000/svg">
<path d="M62.2219 40.8608C62.135 40.9104 61.6006 41.1664 61.4521 41.2238C60.3623 41.7099 59.3842 41.6296 58.2938 40.9882C57.5104 40.5276 56.7834 39.5141 56.4988 39.1582C56.2742 38.8774 56.0023 38.5096 55.6122 38.1608C54.888 37.5095 53.9083 37.0805 52.2128 37.1119C52.0764 37.1144 51.9417 37.0832 51.8212 37.0194C50.1082 36.1135 47.1572 35.0089 44.3367 35.151C43.7777 35.1887 43.6973 34.7822 43.5129 34.3272C42.9999 32.9564 42.6262 32.3216 42.278 31.8248C41.8348 31.1925 41.6401 31.1876 41.2727 31.0844C40.8636 30.9695 40.4202 30.9261 40.1482 30.4519C40.1149 30.3937 39.9814 30.1428 40.1327 29.9663C40.5072 29.5297 41.5458 28.9287 39.9856 28.0478C39.0343 27.5107 39.4579 27.1653 39.6161 27.0838C39.835 26.9709 40.2125 26.8818 40.6639 26.9717C41.1154 27.0617 41.6407 27.3308 42.1554 27.9337C42.6643 28.5298 44.382 31.3112 45.4258 33.4229C45.4398 33.4514 45.4625 33.6034 45.6546 33.622C45.9457 33.6503 46.4445 33.6511 46.5465 33.6598C46.7074 33.6735 46.7094 33.5438 46.6936 33.4911C45.2137 28.5801 43.5116 22.468 40.5574 18.2154C40.4974 18.0933 40.5488 17.9656 40.7351 17.984C43.3788 18.2547 44.1458 22.0172 45.6951 24.4887C47.6854 27.6659 48.8524 26.4208 49.0412 24.2778C49.1731 22.7797 48.778 20.8731 47.7343 19.8041C47.486 19.502 47.0466 19.1194 46.8628 18.8932C46.7968 18.8119 46.787 18.6751 46.9625 18.6314C47.0349 18.6133 47.1385 18.606 47.2794 18.6112C48.5012 18.7051 50.1986 19.694 50.9118 20.795C52.3753 23.0545 52.2662 24.2689 52.0656 25.0697C51.7225 26.4395 51.0824 27.2269 51.876 29.3928C53.4467 33.6801 53.0359 32.7857 52.1419 35.4824C52.0652 35.6874 52.191 35.8402 52.3678 35.8239C54.4246 35.6352 55.0529 36.1009 55.497 36.3389C55.542 36.363 55.5807 36.3999 55.6122 36.3929C55.6911 36.3651 55.7193 36.2656 55.7329 36.1315C55.9017 34.9745 55.6607 34.4858 55.3968 33.8041C55.242 33.4037 55.0666 32.9523 55.0113 32.5126C54.9216 31.9481 55.0237 31.6305 55.1937 31.2082C55.4832 30.4883 55.6559 29.9305 55.4205 28.8471C54.9004 26.5608 53.0266 22.7962 51.8297 20.6279C51.7307 20.4408 50.9108 18.8924 50.7821 18.6658C50.6943 18.511 50.7316 18.3224 50.797 18.1758C50.8513 18.0541 50.9414 17.8102 50.9414 17.8102C51.2272 17.0816 51.3788 16.5252 51.4647 15.8893C51.742 13.8389 51.2045 12.3803 49.7215 11.16C48.3452 10.0275 45.8937 9.52614 42.6294 9.71006L41.9384 9.74928C38.864 9.92478 35.3795 10.1237 32.7574 9.90688C30.2189 9.69705 28.7364 9.29547 28.2247 8.67907C28.0588 8.47892 27.9945 8.25734 28.0229 7.98128C28.0798 7.42954 28.4139 6.88074 28.9394 6.47574C29.394 6.12532 29.9315 5.93681 30.312 5.99639C30.995 6.02427 31.7441 6.40873 32.6113 6.85393C33.3882 7.25287 34.2689 7.70492 35.293 7.99928C36.1589 8.24825 37.016 8.35859 37.8392 8.32719C38.616 8.29755 39.3769 8.13496 40.1007 7.84364C40.4067 7.72037 40.6267 7.57911 40.7222 7.49567C40.7716 7.45253 40.7901 7.36654 40.7304 7.28613C40.6948 7.2378 40.6499 7.23809 40.4911 7.238C39.4011 7.2378 38.4304 7.06612 37.814 6.92163C37.1324 6.74945 37.0738 6.58413 37.0802 6.52103C37.095 6.37498 37.4543 6.23606 37.8648 6.21767C39.8762 6.12728 41.4164 6.23616 42.4356 6.30787C42.783 6.33242 43.0574 6.35179 43.2555 6.3558C43.4584 6.35991 43.7253 6.35218 43.7362 6.35091C43.797 6.34504 43.8146 6.3063 43.8193 6.28996C43.8307 6.25113 43.813 6.20505 43.7903 6.18705C43.0812 5.60156 40.7774 4.7179 38.1494 4.25245C33.9211 3.50349 31.0885 4.11803 29.4571 4.76584C29.1322 4.89477 28.2961 5.25702 27.5526 5.83321C26.7332 6.4682 26.2759 7.16022 26.1934 7.88961C26.0833 8.86601 26.7917 10.1274 30.7937 10.5913C35.0309 11.0826 38.9895 11.0126 42.4819 10.9514C42.847 10.9449 43.2051 10.9387 43.5556 10.9332C45.7679 10.901 47.6403 11.4336 48.4435 12.329C49.3687 13.3604 49.4238 14.7412 49.1898 15.6101C49.1223 15.8605 48.9849 16.2377 48.8202 16.4764C48.5662 16.8202 48.2875 16.9249 47.7754 16.7897C46.1405 16.3578 43.2241 15.3969 41.8101 14.9197C40.5508 14.4946 39.5562 14.1588 38.7127 13.952C36.2087 13.3383 35.4268 13.7447 33.7459 14.8071C33.3406 15.063 32.9287 15.3436 32.4517 15.6683C31.7617 16.1381 30.9795 16.6708 29.9392 17.3202C29.3117 17.7119 28.4892 18.1646 27.6183 18.6437C26.7327 19.1311 25.817 19.635 24.9201 20.1725C22.0433 21.8612 21.5842 24.1254 21.0528 26.7472C20.6756 28.6075 20.2481 30.716 18.8273 32.8512C18.6716 33.0855 17.44 34.5793 17.178 35.0033C16.2048 36.5678 15.6819 37.9179 15.8881 40.1881C16.0423 41.8853 15.4616 43.3626 14.9003 44.7914C14.4583 45.9157 14.0411 46.9777 13.9722 48.1151C13.9202 48.8183 13.9455 49.4755 13.9701 50.1112C14.0109 51.1658 14.0266 52.2168 13.7048 53.1273C13.4577 53.8261 12.831 54.5141 12.5879 55.1904C12.2753 56.0597 12.0564 57.2967 12.0564 58.4328C12.0367 59.3898 11.3257 60.0933 10.5732 60.8384C9.90992 61.4948 9.21584 62.1844 8.96336 63.0771C8.9297 63.1961 8.9073 63.2864 8.86338 63.3573C8.79783 63.463 8.69971 63.5306 8.56814 63.624C8.31369 63.8048 8.00603 64.0425 7.6699 64.7185C7.38621 65.2891 7.4677 66.3066 7.72723 66.8012C7.76724 66.8776 7.87906 67.0573 8.05103 67.077C8.16754 67.0905 8.28464 67.0285 8.40037 66.894C8.40037 66.894 9.13533 66.0436 9.42177 65.7885C9.52223 65.7016 9.64188 65.7175 9.71026 65.7687C9.79096 65.8294 9.80935 65.9306 9.75946 66.0398C9.73031 66.1031 9.28726 66.8921 9.02841 67.5571L9.02234 67.5736C8.98713 67.6679 8.9435 67.7852 9.0063 67.8825C9.06744 67.977 9.21134 68.0288 9.46011 68.0453C9.56978 68.0495 9.67553 68.0516 9.77785 68.0516C11.1398 68.0516 11.856 67.6898 12.2242 67.3713C12.3679 67.2177 12.3965 67.1512 12.4438 67.0409C12.4563 67.0121 12.4701 66.9797 12.4891 66.9386C12.7615 66.2081 12.9442 65.3636 12.9658 64.7333C12.9658 64.4662 13.0416 64.3903 13.2252 64.2067C13.9422 63.4832 13.9429 62.5277 13.9437 61.6033C13.9444 60.7538 13.945 59.8753 14.5036 59.1828C16.0268 57.4784 16.8183 55.4859 17.5839 53.5593C18.3734 51.5715 19.1899 49.5162 20.8105 47.8021C21.2188 47.3827 21.6191 47.1541 21.8832 47.1966C22.0122 47.2162 22.1145 47.299 22.1877 47.4437C22.5345 48.0852 22.4303 48.948 22.3293 49.7827C22.2151 50.726 22.1074 51.6171 22.6073 52.1995C22.9412 52.6322 23.0313 53.088 22.8669 53.52C22.6535 54.2022 22.0038 56.2784 20.4548 57.1972C20.4174 57.2193 20.0094 57.51 19.8818 57.6335C19.8151 57.6983 19.7664 57.7851 19.7101 57.8857C19.5744 58.1279 19.4057 58.4291 18.8733 58.5865C18.2903 58.7333 17.7417 59.0873 17.4421 59.5109C16.6228 60.6681 16.658 62.101 16.735 62.5118C16.7649 62.6711 16.8186 62.8805 16.9711 63.0883C17.0641 63.2154 17.1721 63.291 17.2834 63.307C17.3749 63.3202 17.4663 63.2937 17.5528 63.2279C17.643 63.1591 17.7495 63.036 17.8843 62.8797C18.0959 62.635 18.3591 62.3302 18.6909 62.0865C18.7972 62.0085 18.9019 62.0266 18.9641 62.0701C19.0224 62.1107 19.0491 62.1753 19.0322 62.2348C19.0013 62.3428 18.9025 62.4986 18.7769 62.6959C18.6178 62.9465 18.4197 63.2584 18.2635 63.6261C18.2247 63.7079 18.2198 63.7836 18.2487 63.8506C18.2936 63.9549 18.4052 63.9982 18.4387 64.0091C19.4246 64.3236 20.8973 63.9501 21.7215 63.1757C22.1348 62.7871 22.3358 62.2723 22.3358 61.6018C22.3358 61.4317 22.4168 61.1675 22.5929 60.9915C23.1735 60.4944 23.414 59.7185 23.6685 58.8969C23.729 58.7018 23.7916 58.4999 23.8592 58.3007C24.1221 57.5267 24.4686 56.8616 25.3055 56.1296C26.3916 55.1145 26.8823 54.1567 27.192 53.5666C27.5073 52.9317 27.5763 52.5774 27.8067 52.2072C28.2599 51.4923 29.7898 51.3574 30.355 51.691C30.5894 51.8296 30.6415 52.0211 30.5102 52.2607C30.4245 52.416 29.6175 53.7219 29.2378 54.6143C29.0514 55.0522 28.6299 55.2158 28.3791 55.3626C26.8639 56.2483 26.5876 57.9164 26.5435 58.6C26.5298 58.8134 26.5533 59.0978 26.6608 59.2565C26.723 59.3482 26.8102 59.4074 26.906 59.4229C27.0007 59.4383 27.0977 59.4108 27.1864 59.343C27.2749 59.2756 28.0952 58.4475 28.1934 58.3614C28.3291 58.2425 28.4483 58.2624 28.5088 58.316C28.5732 58.3728 28.6002 58.4858 28.5159 58.6106C28.4016 58.7795 27.8352 59.6326 27.9015 59.8194C28.014 60.1354 28.3363 60.1292 28.6592 60.1322C31.2587 59.9116 32.1777 58.0616 32.1777 58.0616C32.2407 57.9538 32.3188 57.8116 32.2775 57.4267C32.2032 56.7327 32.0393 54.3275 33.4299 52.8299C33.8436 52.3708 34.0862 52.6809 34.1801 52.8859C34.3484 53.254 34.5973 53.8916 34.7388 54.2114C35.0392 54.8899 35.2446 55.3909 35.5907 56.0625C36.1748 57.1957 37.0525 57.3525 38.1388 57.216C39.5434 57.0395 40.5119 57.1524 41.4557 57.2453C42.2573 57.312 42.7004 57.3658 43.2894 56.8272C43.6105 56.5337 44.2263 55.9961 44.6401 55.4112C44.9021 55.0411 44.9833 54.8069 44.9172 54.2311C44.7227 51.34 46.2262 48.8284 48.9364 47.5135C49.343 47.349 49.7947 47.3994 50.0707 47.7702C50.6787 48.6722 52.0928 50.9811 52.0928 52.9409C52.0928 53.1259 52.0199 53.3297 51.9355 53.5656C51.7438 54.1013 51.5054 54.7676 51.9485 55.6768C51.9761 56.4637 51.6847 57.0782 51.4276 57.6205C51.0613 58.3925 50.7722 59.0022 51.7738 59.6028C52.057 59.7722 52.4243 59.9243 52.8966 60.0674C52.9244 60.0758 52.952 60.08 52.9781 60.08C53.0189 60.08 53.0565 60.0699 53.0869 60.0502C53.1215 60.0276 53.143 59.9948 53.1474 59.9581C53.175 59.7315 53.2018 58.9449 53.2443 58.7593C53.2613 58.6853 53.2995 58.5962 53.3849 58.5911C53.4643 58.5865 53.5436 58.6513 53.5661 58.7142C53.6459 58.9033 53.8497 59.6727 53.9059 59.7948C53.9541 59.8999 54.0112 59.9713 54.088 59.9937C54.4898 60.1096 55.0384 59.4191 55.2436 59.0635C55.5978 58.3309 55.4525 57.2421 54.8752 56.2934C54.7903 56.1111 54.7782 56.0379 54.7772 55.8721C54.9907 55.0086 54.8353 54.5713 54.6707 54.1083C54.5758 53.8412 54.48 53.5648 54.4369 53.1859C54.2815 51.8261 55.1137 47.522 55.1919 47.0798C55.3334 46.2792 55.4506 45.7081 55.5014 45.1201C55.5505 44.5512 55.3175 43.8848 54.9218 43.4618C54.559 43.0743 54.1216 42.7191 53.6988 42.3756C53.326 42.0726 52.9736 41.7865 52.6856 41.4915C52.2196 41.0141 52.0712 40.3177 52.0754 40.1211C52.0771 40.0679 52.0868 40.0338 52.1055 40.017C52.1201 40.0037 52.1438 39.9986 52.1782 40.001C52.82 40.0471 53.3336 40.4726 53.9839 41.011C54.5659 41.493 55.2256 42.0394 56.1497 42.4493C57.9755 43.2592 59.7085 43.1395 61.4493 42.0834C62.1893 41.5586 62.418 41.1085 62.4548 41.046C62.5011 40.9674 62.4338 40.7396 62.2219 40.8608ZM21.7631 33.6389C21.869 32.7969 22.4907 31.8996 22.7634 30.8479C23.152 29.6606 23.2595 27.5858 23.4707 25.9409C23.576 25.1211 23.8894 24.7742 24.4814 24.7014C24.8723 24.6663 25.2797 25.0064 25.4897 26.1646C26.218 30.9075 27.6424 31.5636 28.4698 32.8198C28.4848 32.8425 28.4991 32.8661 28.5119 32.8901C28.7238 33.2839 28.7917 33.6506 28.4593 33.9165C28.2642 34.0726 27.6157 34.3058 26.5126 33.6407C25.1891 32.8427 24.9894 31.9832 22.7951 33.7391C22.7951 33.7391 22.5014 33.9672 22.2199 34.0299C21.9816 34.083 21.7188 33.9905 21.7631 33.6389ZM33.2508 51.0383C33.1719 51.0874 33.0831 51.0538 32.9544 50.9716C32.0828 50.4143 29.667 49.9748 27.628 50.7918C25.53 51.6325 23.6086 52.8196 23.4799 50.7447C23.4545 48.9059 23.8463 48.1049 23.2068 47.0107C23.2068 47.0107 23.1795 46.9737 23.1513 46.929C23.0963 46.842 23.163 46.8229 23.1839 46.8212C26.1307 46.5908 26.9173 45.6699 27.101 45.3477C27.1413 45.2769 27.0883 45.2007 27.0133 45.1923C26.3364 45.1174 22.9612 45.016 21.604 45.2123C19.2167 45.5575 17.6132 49.153 17.3031 49.4928C16.9449 49.8854 16.4932 49.5849 16.4932 49.2271C16.4932 48.6272 16.8474 45.7153 17.0826 44.7057C17.455 43.1076 17.9682 41.9202 19.5272 41.6803C20.6198 41.5122 23.3009 41.2283 23.1165 40.5025C22.9634 39.9025 22.8872 39.4331 22.8857 39.1677C22.8837 38.8132 23.065 38.7423 23.424 38.822C23.6894 38.8809 24.0451 39.0385 24.501 39.1458C27.874 39.9395 29.6021 39.3073 31.6123 38.414C31.6691 38.3887 32.4168 38.0525 32.4623 38.0271C32.8246 37.8253 33.2797 38.1898 33.0782 38.6209C32.9715 38.8492 32.8269 38.9548 32.5174 39.2528C31.8536 39.8921 29.377 41.9222 30.8689 45.3542C32.0322 48.0302 32.3706 48.7229 33.196 50.548C33.3296 50.8436 33.3491 50.977 33.2508 51.0382V51.0383ZM39.5214 55.6685C39.3569 55.9243 39.1035 56.106 38.6106 56.106C38.0047 56.106 37.5759 55.9244 37.3188 55.6505C36.7913 55.0881 36.7256 54.3184 36.8548 53.8142C36.9365 53.495 37.1282 53.285 37.3337 53.2242C37.4239 53.1942 37.4725 53.201 37.5172 53.2591C37.6087 53.4058 37.9362 53.9244 38.0117 54.0322C38.1001 54.1582 38.2602 54.2694 38.3908 54.3216C38.6371 54.4202 38.9515 54.5057 39.1177 54.5813C39.6264 54.8009 39.7436 55.323 39.5214 55.6685ZM49.2462 46.2057C49.1822 46.3096 49.125 46.3263 49.0391 46.3655C45.9837 47.5214 43.5549 50.6406 43.9955 54.3883C44.0042 54.5841 43.9432 54.8585 43.7588 55.043C43.7588 55.043 43.1176 55.6945 42.7139 55.972C42.576 56.0668 42.4206 56.1442 42.06 56.121C41.4949 56.0849 40.699 56.0348 40.699 56.0348C40.4854 55.9991 40.5768 55.8135 40.593 55.7728C40.6082 55.734 40.6231 55.689 40.6347 55.6366C40.7504 55.0742 40.6678 54.2864 39.8774 53.9915C39.7638 53.9275 39.8351 53.8233 39.8488 53.7893C40.1881 52.9537 40.6125 51.9195 40.953 50.4695C41.1587 49.5929 41.0324 49.0641 40.725 48.4338C40.657 48.2942 40.5679 48.1652 40.4666 48.0477L39.9859 47.4104C39.8519 47.255 39.887 47.0913 40.0803 47.0223L40.7578 46.8496C40.9231 46.7906 40.9072 46.5399 40.748 46.4997L40.3984 46.3877C40.0676 46.2515 39.8661 45.9874 39.7177 45.7836C39.6933 45.7501 39.6506 45.6825 39.6099 45.609C39.5356 45.4746 39.4817 45.3298 39.4507 45.1793L39.41 44.9815C39.4055 44.8808 39.2471 44.8796 39.1778 44.949C38.6433 45.4857 38.478 46.3097 38.8705 46.9646C39.4203 47.882 39.3981 47.7917 39.8879 48.4855C40.0498 48.7147 40.1466 48.9012 40.2001 49.1278C40.2741 49.4408 40.253 50.2344 40.0433 50.8008L39.4873 52.4895C39.1517 53.2448 38.7774 53.0627 38.5649 52.9214C38.2909 52.7394 38.0357 52.2674 37.8973 51.7667C37.8973 51.7667 37.515 50.357 37.5282 48.4833C37.5028 48.2568 37.3486 47.8867 36.8569 48.2107L35.549 49.2961C35.3643 49.3944 35.0439 49.3406 35.1088 48.9151C35.1088 48.9151 36.0488 44.7219 37.0611 42.3596C37.8211 40.4328 36.9751 39.3467 35.9665 38.1538C34.3189 36.0512 33.9498 33.223 37.7864 34.7723C38.8165 35.2433 39.1847 34.6327 40.4554 34.5226C41.3669 34.4438 41.6666 34.8126 41.7445 34.9687C41.8141 35.1082 41.8381 35.2625 41.8462 35.3433C41.8498 35.3784 41.8381 35.4016 41.7997 35.4022C39.6487 35.5245 37.0819 37.3114 39.0643 40.1153C41.0109 42.8622 46.3679 43.7859 48.7603 41.1668C48.7918 41.1317 48.7999 41.0528 48.7518 41.0129C48.7271 40.9923 48.6848 40.9733 48.629 40.9944C48.1059 41.1927 47.6244 41.3423 47.1412 41.4218C45.9983 41.6098 43.577 41.4726 42.4324 40.1664C41.7775 39.4192 41.795 38.5563 42.902 38.4245C43.5183 38.375 43.8199 38.4884 44.0868 38.4934C44.7772 38.4841 44.9189 37.7935 44.7767 37.4813C44.6583 37.1822 44.3832 36.8205 43.9964 36.5061C43.6393 36.2522 43.8325 35.9865 44.0647 35.9929C46.2806 36.1191 48.3988 36.5026 49.1978 39.1623C49.2284 39.2619 49.2826 39.598 49.3672 39.7235C49.5387 39.9779 49.8371 40.1689 50.1657 40.4555C50.9699 41.1567 51.6915 42.4069 49.2462 46.2057ZM52.1245 44.561C52.5136 43.7472 53.042 44.293 53.294 45.1864C53.6142 46.3212 53.6602 48.1471 53.5252 49.0887C53.3491 50.317 52.7716 50.071 52.4627 49.6342C51.9749 48.9443 51.447 48.026 51.0791 47.3958C51.0679 47.3767 51.0573 47.3572 51.0477 47.3371C50.8767 46.9828 50.851 46.7021 51.0302 46.4389C51.2146 46.1561 51.9457 44.9351 52.1246 44.561H52.1245Z" fill="white"/>
</svg>
